<svg xmlns="http://www.w3.org/2000/svg" xmlns:xlink="http://www.w3.org/1999/xlink" id="Capa_1" x="0px" y="0px" viewBox="0 0 216.31 37.36" style="enable-background:new 0 0 216.31 37.36;" xml:space="preserve"><path d="M1.67,0.15C1.55,0.08,1.41,0.03,1.26,0.01C1.12-0.01,0.97,0,0.83,0.04c-0.14,0.04-0.27,0.1-0.39,0.19 c-0.12,0.09-0.21,0.2-0.28,0.32C0.01,0.8-0.03,1.1,0.04,1.38l2.13,3.1C4.2,7.45,5.28,10.93,5.28,14.5c0,3.57-1.08,7.06-3.11,10.02 l-2.13,3.1C0,27.76-0.01,27.9,0.01,28.04c0.02,0.14,0.06,0.28,0.13,0.4c0.07,0.12,0.17,0.23,0.28,0.32 c0.11,0.09,0.25,0.15,0.39,0.19c0.14,0.04,0.28,0.05,0.43,0.03c0.14-0.02,0.28-0.06,0.41-0.14l17.81-13.28 c0.29-0.22,0.49-0.54,0.54-0.9c0.05-0.36-0.04-0.72-0.26-1.01c-0.08-0.09-0.16-0.18-0.26-0.25L1.67,0.15z"></path><path class="st0" d="M210.25,0.02h6.06l-8.92,12.1L216,24.87h-6.04l-5.73-8.29l-5.75,8.29h-6.36l8.6-12.75l-6.04-7.34h-9.57v15.3 h7.97l-3.2,4.78H166.3l-4.14-9.56h-9.27v9.55h-4.78V4.78h-8.28v20.07h-4.78V4.78h-6.06c0-0.25,0-0.5,0.01-0.74 c0.04-1.65,0.07-3.21-1.59-4.04h40.5c3.81,0,4.14,1.29,4.14,3.51v7.34c0.33,2.23-1.6,3.83-4.77,4.14l1.91,5.11h11.17V4.8h-6.04 c0-0.23,0-0.45,0.01-0.68v0v0c0.03-1.67,0.06-3.26-1.62-4.1h25.46l6.04,7.67L210.25,0.02z M152.56,10.54h13.41V10.5 c0.95,0,1.6-0.31,1.6-1.25v-3.2l-0.06-0.1c-0.33-0.59-0.64-1.15-1.54-1.15h-13.41V10.54z M106.36,0.02h15.93l-0.05,0.02 c2.87,0,4.46,0.96,4.46,4.47v20.4h-4.78v-8.29c0-0.96-0.31-1.29-0.96-1.29h-12.1c-1.25,0-1.25,0.33-1.25,0.96v8.61H84.36 c-1.25,0-1.25-0.64-1.25-1.29V0h4.46v18.82c0.31,0.96,0.62,1.29,1.27,1.29h14.34V4.8C102.85,1.62,103.83,0.02,106.36,0.02z  M107.67,10.56h14.27l0.04-4.76c0.02-0.08,0.02-0.17,0-0.26c-0.02-0.11-0.05-0.21-0.11-0.31c-0.06-0.09-0.13-0.18-0.22-0.24 c-0.09-0.07-0.19-0.11-0.3-0.14c-0.11-0.03-0.22-0.03-0.33-0.01h-12.1c-0.92,0-1.25,0.31-1.25,0.94V10.56z M47.08,10.54V4.16 c0.33-2.87-1.29-3.83-3.51-4.14H27V24.9h21.67c0.92-0.23,1.73-0.77,2.31-1.52c0.58-0.75,0.88-1.68,0.87-2.62v-6.07 C51.54,11.82,49.63,10.85,47.08,10.54z M31.46,4.82h9.88c0.64,0,0.95,0.63,0.95,1.25v3.18c0,0.96-0.31,1.29-0.95,1.29h-9.88V4.82z  M47.41,19.14c0,0.55-0.24,0.63-0.89,0.85c-0.11,0.04-0.24,0.08-0.37,0.13H31.48v-4.78h14.66c0.82,0,0.94,0.25,1.15,0.71 c0.03,0.07,0.07,0.16,0.11,0.24V19.14z M55.36,22.68V2.26c0-1.6,0.95-2.24,2.53-2.24H78.9v4.8H61.4c-0.08-0.02-0.17-0.02-0.26,0 c-0.22,0.04-0.41,0.16-0.54,0.34c-0.13,0.18-0.19,0.4-0.15,0.62v4.14h18.48v5.1H60.13v3.83c0,0.96,0.31,1.29,1.29,1.29h17.5v4.78 H57.91C56.33,24.91,55.36,24.28,55.36,22.68z"></path><path class="st0" d="M112.81,30.72c-0.88,0-1.8,0.35-1.8,1.18c0,0.75,0.83,0.97,1.87,1.14c1.38,0.22,2.74,0.5,2.74,2.04 c0,1.56-1.49,2.04-2.81,2.04c-0.59,0.05-1.18-0.07-1.7-0.36c-0.52-0.28-0.94-0.72-1.22-1.24l0.7-0.42c0.23,0.38,0.55,0.69,0.94,0.9 c0.39,0.21,0.82,0.32,1.26,0.31c0.83,0,1.95-0.28,1.95-1.29c0-0.86-0.95-1.1-1.98-1.25c-1.32-0.2-2.63-0.51-2.63-1.91 c0-1.4,1.45-1.93,2.64-1.93c0.51-0.06,1.03,0.02,1.49,0.24c0.46,0.22,0.85,0.57,1.12,1.01l-0.64,0.42 c-0.23-0.29-0.52-0.52-0.86-0.67C113.54,30.77,113.18,30.7,112.81,30.72z M90.66,30.09h2.5c0.46-0.03,0.91,0.04,1.34,0.19 c0.43,0.16,0.82,0.4,1.15,0.72c0.33,0.32,0.59,0.7,0.75,1.13c0.17,0.43,0.25,0.88,0.23,1.34c0.03,0.47-0.04,0.93-0.21,1.37 c-0.16,0.44-0.42,0.84-0.75,1.17c-0.33,0.33-0.72,0.59-1.15,0.76c-0.43,0.17-0.9,0.25-1.37,0.23h-2.5V30.09z M95.78,33.45 c0.01-0.32-0.04-0.64-0.15-0.94c-0.11-0.3-0.28-0.58-0.5-0.82c-0.22-0.24-0.48-0.43-0.77-0.56c-0.29-0.13-0.61-0.21-0.93-0.22H91.5 v5.22h1.67c0.35,0.02,0.71-0.04,1.03-0.18c0.33-0.13,0.62-0.33,0.87-0.58c0.25-0.25,0.44-0.56,0.56-0.89 C95.76,34.16,95.81,33.81,95.78,33.45z M50.97,33.67c0,0.6,0.14,1.19,0.4,1.73c0.25,0.51,0.66,0.94,1.16,1.21 c0.52,0.29,1.1,0.44,1.7,0.44c0.6,0,1.18-0.15,1.7-0.44c0.5-0.28,0.9-0.7,1.16-1.21c0.26-0.54,0.4-1.13,0.4-1.73 c0-0.6-0.14-1.19-0.4-1.73c-0.26-0.5-0.67-0.92-1.16-1.21c-0.52-0.29-1.1-0.44-1.7-0.44c-0.59,0-1.18,0.15-1.7,0.44 c-0.5,0.28-0.9,0.7-1.16,1.21C51.11,32.48,50.97,33.07,50.97,33.67z M52.11,35.03c-0.2-0.43-0.3-0.89-0.29-1.36l0,0 c-0.04-0.69,0.19-1.38,0.63-1.92c0.01-0.01,0.02-0.02,0.03-0.03c0.02-0.02,0.03-0.04,0.06-0.05c0.23-0.22,0.5-0.39,0.8-0.51 c0.3-0.11,0.61-0.17,0.93-0.16c0.32,0.01,0.63,0.08,0.92,0.21c0.29,0.13,0.55,0.32,0.77,0.55c0.46,0.53,0.7,1.21,0.66,1.91 c0,0.47-0.1,0.93-0.29,1.36c-0.18,0.39-0.47,0.72-0.83,0.96c-0.39,0.23-0.83,0.34-1.28,0.34c-0.45,0-0.89-0.12-1.28-0.34 C52.58,35.75,52.29,35.42,52.11,35.03z M38.2,32.3c-0.18,0.44-0.28,0.91-0.28,1.38c-0.01,0.46,0.07,0.93,0.23,1.36 c0.16,0.41,0.41,0.77,0.72,1.08c0.63,0.6,1.46,0.94,2.33,0.94c0.6,0.01,1.19-0.15,1.71-0.46c0.47-0.3,0.84-0.73,1.07-1.23 c0.25-0.57,0.37-1.18,0.35-1.8h-3.56v0.74h2.68c-0.04,0.27-0.11,0.54-0.22,0.79c-0.11,0.23-0.25,0.45-0.42,0.64 c-0.18,0.21-0.41,0.36-0.66,0.46c-0.28,0.11-0.58,0.17-0.88,0.17c-0.45,0.01-0.9-0.1-1.29-0.33c-0.38-0.23-0.69-0.56-0.9-0.96 c-0.22-0.43-0.33-0.9-0.33-1.38c-0.02-0.71,0.24-1.39,0.72-1.91c0.37-0.37,0.85-0.61,1.36-0.7c0.52-0.09,1.05-0.02,1.52,0.21 c0.32,0.16,0.6,0.39,0.83,0.66l0.64-0.42c-0.3-0.39-0.68-0.7-1.12-0.91c-0.44-0.21-0.92-0.32-1.41-0.3 c-0.45-0.01-0.89,0.07-1.3,0.24c-0.4,0.16-0.76,0.39-1.07,0.68C38.61,31.53,38.37,31.9,38.2,32.3z M29.65,30.38L27,36.95l0.92-0.02 l0.57-1.45h3.27l0.59,1.45h0.94l-2.63-6.55H29.65z M31.52,34.78h-2.77l1.38-3.55L31.52,34.78z M45.86,36.95v-6.57h0.81v5.83h3.05 v0.74H45.86z M59.51,36.95v-6.57h2.92c0.49-0.02,0.97,0.14,1.34,0.46c0.16,0.16,0.29,0.34,0.38,0.55c0.08,0.21,0.12,0.43,0.12,0.66 c0.01,0.36-0.1,0.71-0.33,0.99c-0.2,0.26-0.49,0.44-0.81,0.51c0.18,0.03,0.35,0.09,0.51,0.19c0.15,0.09,0.29,0.22,0.39,0.37 c0.24,0.3,0.37,0.68,0.37,1.07c0.01,0.24-0.03,0.48-0.12,0.7c-0.09,0.22-0.22,0.42-0.39,0.59c-0.38,0.34-0.89,0.51-1.4,0.48 L59.51,36.95z M60.32,33.23h1.96c0.15,0.01,0.3-0.01,0.44-0.06c0.14-0.05,0.27-0.13,0.38-0.23c0.1-0.1,0.18-0.22,0.23-0.35 c0.05-0.13,0.07-0.27,0.07-0.41c0.01-0.14-0.01-0.28-0.07-0.41c-0.05-0.13-0.13-0.25-0.23-0.35c-0.11-0.1-0.24-0.18-0.38-0.23 c-0.14-0.05-0.29-0.07-0.44-0.06h-1.96V33.23z M60.32,36.23h2.02c0.32,0.02,0.64-0.09,0.88-0.29c0.11-0.11,0.19-0.24,0.24-0.38 c0.05-0.14,0.08-0.29,0.07-0.45c0-0.3-0.11-0.59-0.31-0.81c-0.12-0.11-0.25-0.2-0.41-0.26s-0.31-0.08-0.47-0.08h-2.02V36.23z  M68.42,30.38l-2.65,6.57l0.92-0.02l0.59-1.45h3.25l0.59,1.45h0.94l-2.63-6.55H68.42z M70.33,34.78h-2.79l1.4-3.55L70.33,34.78z  M73.65,36.95v-0.02h0.82v-5.22l3.8,5.22h0.79v-6.55h-0.83v5.13l-3.77-5.13h-0.83v6.55h0L73.65,36.95z M80.94,30.38v0.74H83v5.83 h0.81v-5.83h2.09v-0.74H80.94z M98.91,30.09h-0.86v6.9h0.86V30.09z M100.96,30.09l2.35,5.89l2.37-5.89h0.97L103.81,37h-0.92 l-2.85-6.92H100.96z M108.6,30.09h-0.86v6.9h0.86V30.09z M117.79,30.09h-0.83v6.9h0.83V30.09z M126.22,33.56 c0.03,0.47-0.04,0.94-0.21,1.38c-0.16,0.44-0.42,0.84-0.75,1.18c-0.33,0.34-0.72,0.6-1.16,0.77c-0.44,0.17-0.9,0.25-1.37,0.24 c-0.47,0.02-0.94-0.06-1.38-0.23c-0.44-0.17-0.83-0.44-1.17-0.77c-0.33-0.34-0.59-0.74-0.75-1.18s-0.24-0.91-0.21-1.38 c-0.03-0.47,0.04-0.94,0.21-1.39c0.17-0.44,0.42-0.84,0.75-1.18c0.33-0.34,0.73-0.6,1.17-0.78c0.44-0.18,0.91-0.26,1.38-0.24 c0.47-0.02,0.94,0.07,1.38,0.24c0.44,0.18,0.83,0.44,1.16,0.78c0.33,0.34,0.58,0.74,0.75,1.18 C126.18,32.62,126.25,33.09,126.22,33.56z M122.73,30.77c-0.36-0.01-0.73,0.05-1.06,0.19c-0.34,0.14-0.64,0.35-0.89,0.61 c-0.25,0.26-0.44,0.58-0.57,0.92c-0.12,0.34-0.17,0.71-0.14,1.07c-0.03,0.36,0.02,0.72,0.15,1.07c0.12,0.34,0.32,0.65,0.57,0.91 c0.25,0.26,0.56,0.47,0.89,0.6c0.34,0.13,0.7,0.2,1.06,0.18c0.36,0.01,0.72-0.05,1.05-0.19c0.33-0.14,0.63-0.34,0.88-0.6 c0.25-0.26,0.44-0.57,0.56-0.91c0.12-0.34,0.17-0.7,0.14-1.06c0.03-0.36-0.02-0.72-0.15-1.06c-0.12-0.34-0.31-0.65-0.56-0.91 c-0.25-0.26-0.55-0.47-0.88-0.61C123.45,30.84,123.09,30.77,122.73,30.77z M132.45,35.37l-4.22-5.28h-0.59v6.9h0.83v-5.26l4.22,5.26 h0.59v-6.9h-0.83V35.37z"></path><path d="M112.81,30.72v0.23l0.01,0L112.81,30.72z M112.89,33.03l0.04-0.22v0L112.89,33.03z M112.81,37.12v-0.22h-0.01l-0.01,0 L112.81,37.12z M111.11,36.76l-0.11,0.2l0,0L111.11,36.76z M109.89,35.52l-0.12-0.19l-0.18,0.11l0.1,0.19L109.89,35.52z  M110.59,35.09l0.19-0.12l-0.12-0.19l-0.19,0.12L110.59,35.09z M112.79,36.31v-0.23l0,0L112.79,36.31z M112.75,33.77l-0.03,0.22l0,0 L112.75,33.77z M112.77,29.93v0.22h0.01l0.01,0L112.77,29.93z M115.38,31.18l0.12,0.19l0.18-0.12l-0.12-0.19L115.38,31.18z  M114.74,31.6l-0.18,0.14l0.13,0.16l0.17-0.11L114.74,31.6z M113.88,30.93l0.09-0.2l0,0L113.88,30.93z M93.16,30.09v0.22h0.01 l0.01,0L93.16,30.09z M90.66,30.09v-0.22h-0.23v0.22H90.66z M95.65,31.01l-0.16,0.16l0,0L95.65,31.01z M96.4,32.13l-0.21,0.08 L96.4,32.13z M96.63,33.47l-0.22-0.01l0,0.01l0,0.01L96.63,33.47z M96.42,34.84l-0.21-0.08L96.42,34.84z M95.68,36.01l0.16,0.16l0,0 L95.68,36.01z M94.52,36.78l0.08,0.21l0,0L94.52,36.78z M93.16,37l0.01-0.23h-0.01V37z M90.66,37h-0.23v0.22h0.23V37z M95.78,33.45 l-0.23-0.01l0,0.01l0,0.01L95.78,33.45z M95.14,31.69l0.16-0.15l0,0L95.14,31.69z M94.36,31.14l0.09-0.2l0,0L94.36,31.14z  M93.43,30.92l0.01-0.22h-0.01V30.92z M91.5,30.92v-0.22h-0.22v0.22H91.5z M91.5,36.14h-0.22v0.22h0.22V36.14z M93.18,36.14 l0.01-0.22h-0.01V36.14z M94.21,35.97l0.08,0.21l0,0L94.21,35.97z M95.08,35.38l0.16,0.16l0,0L95.08,35.38z M95.64,34.49l-0.21-0.08 l0,0L95.64,34.49z M51.37,35.4l-0.2,0.1l0,0L51.37,35.4z M52.53,36.62l-0.11,0.2l0,0L52.53,36.62z M55.93,36.62l0.11,0.2v0 L55.93,36.62z M57.08,35.4l0.2,0.1l0,0L57.08,35.4z M57.08,31.94l0.2-0.1l0-0.01L57.08,31.94z M55.93,30.73l0.11-0.19l0,0 L55.93,30.73z M52.53,30.73l-0.11-0.2l0,0L52.53,30.73z M51.37,31.94l-0.2-0.1l0,0L51.37,31.94z M51.81,33.67l0.21-0.07l-0.42-1.32 l-0.02,1.39L51.81,33.67z M52.11,35.03l-0.2,0.1l0,0L52.11,35.03z M51.81,33.68l-0.21,0.07l0.53,1.66l-0.09-1.74L51.81,33.68z  M52.44,31.76l-0.16-0.16l-0.01,0.01l-0.01,0.01L52.44,31.76z M52.47,31.72l-0.17-0.14l0,0L52.47,31.72z M52.53,31.67l0.1,0.2 l0.03-0.02l0.02-0.02L52.53,31.67z M53.32,31.17l0.08,0.21l0,0L53.32,31.17z M54.25,31l-0.01,0.23L54.25,31z M55.17,31.21 l-0.09,0.21L55.17,31.21z M55.94,31.76l0.17-0.15l-0.01-0.01L55.94,31.76z M56.6,33.67l-0.23-0.01v0.01L56.6,33.67z M56.31,35.03 l0.2,0.09v0L56.31,35.03z M55.48,35.99l0.11,0.19l0.01-0.01L55.48,35.99z M52.93,35.99l-0.13,0.19l0.01,0l0.01,0L52.93,35.99z  M37.93,33.67l0.23,0l0-0.01L37.93,33.67z M38.2,32.3l0.21,0.09l0,0L38.2,32.3z M38.16,35.04l-0.21,0.08l0,0L38.16,35.04z  M38.88,36.12l-0.16,0.16l0,0L38.88,36.12z M41.21,37.06l0-0.23l0,0L41.21,37.06z M42.92,36.6l0.12,0.19l0,0L42.92,36.6z  M43.98,35.37l0.21,0.09l0,0L43.98,35.37z M44.34,33.56l0.22,0l0-0.22h-0.22V33.56z M40.77,33.56v-0.23h-0.22v0.23H40.77z  M40.77,34.3h-0.22v0.23h0.22V34.3z M43.45,34.3l0.22,0.03l0.03-0.25h-0.26V34.3z M43.23,35.09l0.2,0.1l0-0.01L43.23,35.09z  M42.81,35.74l0.17,0.15l0,0L42.81,35.74z M42.15,36.2l-0.08-0.21l0,0L42.15,36.2z M41.27,36.36v-0.23l-0.01,0L41.27,36.36z  M39.99,36.03l-0.12,0.19l0,0L39.99,36.03z M39.09,35.07l-0.2,0.1l0,0L39.09,35.07z M38.75,33.7l0.23,0l0-0.01L38.75,33.7z  M39.47,31.78l-0.16-0.16l-0.01,0.01L39.47,31.78z M40.83,31.08l0.04,0.22l0,0L40.83,31.08z M42.35,31.29l0.1-0.2l-0.01,0 L42.35,31.29z M43.18,31.95l-0.17,0.14l0.13,0.15l0.17-0.11L43.18,31.95z M43.82,31.52l0.12,0.19l0.2-0.13L44,31.39L43.82,31.52z  M42.7,30.61l0.1-0.2l0,0L42.7,30.61z M41.29,30.31l-0.01,0.23l0.01,0L41.29,30.31z M39.99,30.55l0.08,0.21l0,0L39.99,30.55z  M38.92,31.23l-0.16-0.16l0,0L38.92,31.23z M27,36.95l-0.21-0.08l-0.13,0.32L27,37.17L27,36.95z M29.65,30.38v-0.23h-0.15 l-0.06,0.14L29.65,30.38z M27.92,36.93l0,0.22l0.15,0l0.05-0.14L27.92,36.93z M28.49,35.48v-0.22h-0.15l-0.06,0.14L28.49,35.48z  M31.76,35.48l0.21-0.08l-0.06-0.14h-0.15V35.48z M32.35,36.93l-0.21,0.08l0.06,0.14h0.15V36.93z M33.28,36.93v0.22h0.33l-0.12-0.31 L33.28,36.93z M30.66,30.38l0.21-0.08l-0.06-0.14h-0.15V30.38z M28.75,34.78l-0.21-0.08L28.42,35h0.33V34.78z M31.52,34.78V35h0.33 l-0.12-0.31L31.52,34.78z M30.12,31.23l0.21-0.08l-0.21-0.54l-0.21,0.54L30.12,31.23z M45.86,30.38v-0.23h-0.22v0.23H45.86z  M45.86,36.95h-0.22v0.22h0.22V36.95z M46.67,30.38h0.22v-0.23h-0.22V30.38z M46.67,36.21h-0.22v0.22h0.22V36.21z M49.72,36.21h0.22 v-0.22h-0.22V36.21z M49.72,36.95v0.22h0.22v-0.22H49.72z M59.51,30.38v-0.22h-0.22v0.22H59.51z M59.51,36.95h-0.22v0.22l0.22,0 V36.95z M62.43,30.38v0.23l0.01,0L62.43,30.38z M63.77,30.84l0.15-0.16l-0.01-0.01L63.77,30.84z M64.27,32.06l-0.22-0.01v0.01v0.01 L64.27,32.06z M63.94,33.05l-0.17-0.14l0,0L63.94,33.05z M63.13,33.56l-0.05-0.22l-1.11,0.26l1.12,0.18L63.13,33.56z M63.63,33.75 l0.12-0.19l0,0L63.63,33.75z M64.03,34.12l-0.18,0.13l0.01,0.01L64.03,34.12z M64.4,35.18l-0.23,0v0.01L64.4,35.18z M64.28,35.88 l0.21,0.08L64.28,35.88z M63.88,36.47l0.15,0.17l0.01-0.01L63.88,36.47z M62.49,36.95l0.01-0.22h-0.01V36.95z M62.28,33.23 l0.01-0.22h-0.01V33.23z M60.32,33.23h-0.22v0.23h0.22V33.23z M62.73,33.17l-0.08-0.21l0,0L62.73,33.17z M63.11,32.94l0.15,0.17l0,0 L63.11,32.94z M63.34,32.59l0.21,0.08l0,0L63.34,32.59z M63.4,32.18l-0.22-0.01l0,0.01l0,0.01L63.4,32.18z M63.34,31.78l0.21-0.08 l0,0L63.34,31.78z M63.11,31.43l0.16-0.16l-0.01-0.01L63.11,31.43z M62.72,31.2l-0.08,0.21l0,0L62.72,31.2z M62.28,31.14v0.23 l0.01,0L62.28,31.14z M60.32,31.14v-0.22h-0.22v0.22H60.32z M62.34,36.23L62.35,36h-0.01V36.23z M60.32,36.23h-0.22v0.22h0.22V36.23 z M63.22,35.93l0.15,0.17l0.01-0.01l0.01-0.01L63.22,35.93z M63.53,35.11l-0.22,0v0.01L63.53,35.11z M63.22,34.3l0.17-0.15l0-0.01 l-0.01-0.01L63.22,34.3z M62.81,34.04l-0.08,0.21l0,0L62.81,34.04z M62.34,33.97v0.23l0.01,0L62.34,33.97z M60.32,33.97v-0.22h-0.22 v0.22H60.32z M65.77,36.95l-0.21-0.08l-0.13,0.32l0.34-0.01L65.77,36.95z M68.42,30.38v-0.23h-0.15l-0.06,0.14L68.42,30.38z  M66.69,36.93l0,0.22l0.15,0l0.06-0.14L66.69,36.93z M67.28,35.48v-0.22h-0.15l-0.06,0.14L67.28,35.48z M70.53,35.48l0.21-0.08 l-0.06-0.14h-0.15V35.48z M71.12,36.93l-0.21,0.08l0.06,0.14h0.15V36.93z M72.06,36.93v0.22h0.33l-0.12-0.31L72.06,36.93z  M69.43,30.38l0.21-0.08l-0.06-0.14h-0.15V30.38z M67.53,34.78l-0.21-0.08L67.2,35h0.33V34.78z M70.33,34.78V35h0.33l-0.12-0.31 L70.33,34.78z M68.93,31.23l0.21-0.08l-0.21-0.53l-0.21,0.53L68.93,31.23z M73.65,36.95l-0.22,0.02l0.45-0.02H73.65z M74.48,36.93 v0.22h0.23v-0.22H74.48z M74.48,31.71l0.18-0.13l-0.41-0.56v0.69H74.48z M78.28,36.93l-0.18,0.13l0.07,0.09h0.11V36.93z  M79.07,36.93v0.22h0.22v-0.22H79.07z M79.07,30.38h0.22v-0.23h-0.22V30.38z M78.24,30.38v-0.23h-0.23v0.23H78.24z M78.24,35.51 l-0.18,0.13l0.41,0.55v-0.69H78.24z M74.48,30.38l0.18-0.13l-0.07-0.09h-0.11V30.38z M73.65,30.38v-0.23h-0.22v0.23H73.65z  M73.65,36.93v-0.22H73.4l0.03,0.25L73.65,36.93z M80.94,31.12h-0.22v0.22h0.22V31.12z M80.94,30.38v-0.23h-0.22v0.23H80.94z  M83,31.12h0.23v-0.22H83V31.12z M83,36.95h-0.23v0.22H83V36.95z M83.81,36.95v0.22h0.23v-0.22H83.81z M83.81,31.12v-0.22h-0.22 v0.22H83.81z M85.9,31.12v0.22h0.23v-0.22H85.9z M85.9,30.38h0.23v-0.23H85.9V30.38z M98.04,30.09v-0.23h-0.22v0.23H98.04z  M98.91,30.09h0.22v-0.23h-0.22V30.09z M98.04,36.99h-0.22v0.23h0.22V36.99z M98.91,36.99v0.23h0.22v-0.23H98.91z M103.32,35.97 l-0.21,0.08l0.21,0.52l0.21-0.52L103.32,35.97z M100.96,30.09l0.21-0.08l-0.06-0.14h-0.15V30.09z M105.69,30.09v-0.23h-0.15 L105.48,30L105.69,30.09z M106.66,30.09l0.21,0.09l0.13-0.31h-0.34V30.09z M103.81,37v0.22h0.15l0.06-0.14L103.81,37z M102.89,37 l-0.21,0.09l0.06,0.14h0.15V37z M100.05,30.09v-0.23h-0.34l0.13,0.31L100.05,30.09z M107.74,30.09v-0.23h-0.23v0.23H107.74z  M108.6,30.09h0.23v-0.23h-0.23V30.09z M107.74,36.99h-0.23v0.23h0.23V36.99z M108.6,36.99v0.23h0.23v-0.23H108.6z M116.96,30.09 v-0.23h-0.22v0.23H116.96z M117.79,30.09h0.23v-0.23h-0.23V30.09z M116.96,36.99h-0.22v0.23h0.22V36.99z M117.79,36.99v0.23h0.23 v-0.23H117.79z M126.01,34.94l0.21,0.08L126.01,34.94z M126.22,33.56L126,33.55l0,0.01l0,0.01L126.22,33.56z M124.1,36.9l0.08,0.21 l0,0L124.1,36.9z M122.73,37.13l0.01-0.22l-0.01,0l-0.01,0L122.73,37.13z M121.35,36.9l0.08-0.21l0,0L121.35,36.9z M120.18,36.13 l0.16-0.16l0,0L120.18,36.13z M119.43,34.95l-0.21,0.08l0,0L119.43,34.95z M119.22,33.56l0.22,0.01l0-0.01l0-0.01L119.22,33.56z  M119.43,32.18l0.21,0.08L119.43,32.18z M120.18,31l0.16,0.16l0,0L120.18,31z M121.35,30.22l0.08,0.21L121.35,30.22z M122.73,29.98 l-0.01,0.22l0.01,0l0.01,0L122.73,29.98z M124.11,30.22l-0.08,0.21l0,0L124.11,30.22z M125.27,31l0.16-0.16L125.27,31z  M126.01,32.18l-0.21,0.08L126.01,32.18z M122.73,30.77l-0.01,0.23l0.01,0L122.73,30.77z M120.77,31.57l-0.16-0.16l0,0L120.77,31.57 z M120.21,32.49L120,32.42l0,0L120.21,32.49z M120.07,33.56l0.23,0.02l0-0.02l0-0.02L120.07,33.56z M120.78,35.54l0.16-0.16l0,0 L120.78,35.54z M121.67,36.14l0.08-0.21l0,0L121.67,36.14z M122.73,36.32l0.01-0.22l-0.01,0l-0.01,0L122.73,36.32z M123.78,36.13 l-0.09-0.21l0,0L123.78,36.13z M124.66,35.53l-0.16-0.16l0,0L124.66,35.53z M125.22,34.62l0.21,0.08l0,0L125.22,34.62z  M125.36,33.56l-0.22-0.02l0,0.02l0,0.02L125.36,33.56z M124.65,31.59l-0.16,0.15l0,0L124.65,31.59z M123.78,30.98l-0.09,0.21l0,0 L123.78,30.98z M128.22,30.09l0.18-0.14l-0.07-0.08h-0.11V30.09z M132.45,35.37l-0.18,0.14l0.4,0.5v-0.64H132.45z M127.63,30.09 v-0.23h-0.23v0.23H127.63z M127.63,36.99h-0.23v0.23h0.23V36.99z M128.46,36.99v0.23h0.23v-0.23H128.46z M128.46,31.73l0.18-0.14 l-0.4-0.5v0.64H128.46z M132.68,36.99l-0.18,0.14l0.07,0.08h0.11V36.99z M133.27,36.99v0.23h0.22v-0.23H133.27z M133.27,30.09h0.22 v-0.23h-0.22V30.09z M132.45,30.09v-0.23h-0.23v0.23H132.45z M111.24,31.89c0-0.31,0.17-0.54,0.46-0.7c0.3-0.17,0.71-0.25,1.12-0.25 v-0.45c-0.46,0-0.96,0.09-1.34,0.31c-0.39,0.22-0.68,0.58-0.68,1.09H111.24z M112.92,32.81c-0.53-0.08-0.96-0.18-1.26-0.33 c-0.15-0.07-0.25-0.16-0.32-0.25c-0.06-0.09-0.1-0.2-0.1-0.34h-0.45c0,0.23,0.07,0.44,0.19,0.61c0.12,0.17,0.29,0.29,0.48,0.39 c0.37,0.19,0.87,0.29,1.4,0.37L112.92,32.81z M115.85,35.07c0-0.42-0.09-0.77-0.27-1.06c-0.17-0.29-0.42-0.5-0.7-0.66 c-0.55-0.31-1.28-0.44-1.96-0.55l-0.07,0.44c0.7,0.11,1.34,0.23,1.81,0.5c0.23,0.13,0.41,0.29,0.54,0.5c0.12,0.21,0.2,0.47,0.2,0.82 H115.85z M112.81,37.34c0.68,0,1.43-0.12,2.01-0.47c0.6-0.35,1.02-0.93,1.02-1.8h-0.45c0,0.69-0.32,1.13-0.8,1.41 c-0.49,0.29-1.15,0.4-1.79,0.4V37.34z M111,36.96c0.56,0.31,1.19,0.44,1.83,0.38l-0.04-0.45c-0.55,0.05-1.09-0.07-1.57-0.33 L111,36.96z M109.69,35.62c0.3,0.56,0.75,1.03,1.31,1.34l0.22-0.39c-0.48-0.26-0.87-0.66-1.13-1.15L109.69,35.62z M110.47,34.9 l-0.7,0.42l0.23,0.38l0.7-0.42L110.47,34.9z M111.63,35.8c-0.35-0.19-0.65-0.48-0.85-0.82l-0.39,0.23c0.25,0.41,0.6,0.75,1.02,0.98 L111.63,35.8z M112.78,36.08c-0.4,0.01-0.8-0.09-1.15-0.28l-0.22,0.39c0.42,0.23,0.9,0.35,1.38,0.34L112.78,36.08z M114.51,35.02 c0,0.4-0.21,0.66-0.54,0.82c-0.34,0.17-0.79,0.24-1.18,0.24v0.45c0.43,0,0.96-0.07,1.39-0.29c0.44-0.22,0.79-0.61,0.79-1.22H114.51z  M112.72,33.99c0.51,0.07,0.98,0.17,1.31,0.33c0.16,0.08,0.28,0.18,0.36,0.29c0.08,0.11,0.12,0.24,0.12,0.41h0.45 c0-0.26-0.07-0.48-0.21-0.67c-0.13-0.18-0.32-0.32-0.52-0.42c-0.4-0.2-0.93-0.3-1.45-0.38L112.72,33.99z M109.9,31.86 c0,0.39,0.09,0.71,0.26,0.98c0.17,0.27,0.4,0.47,0.67,0.62c0.53,0.3,1.23,0.43,1.88,0.53l0.07-0.44c-0.66-0.1-1.28-0.23-1.73-0.48 c-0.22-0.13-0.39-0.28-0.51-0.47c-0.12-0.19-0.19-0.43-0.19-0.74H109.9z M112.77,29.7c-0.62,0-1.33,0.14-1.89,0.47 c-0.57,0.34-0.98,0.89-0.98,1.68h0.45c0-0.61,0.31-1.02,0.77-1.3c0.47-0.28,1.08-0.41,1.65-0.41V29.7z M114.35,29.97 c-0.5-0.24-1.06-0.33-1.61-0.26l0.05,0.45c0.47-0.06,0.94,0.02,1.36,0.22L114.35,29.97z M115.57,31.06 c-0.29-0.47-0.71-0.85-1.22-1.09l-0.19,0.41c0.42,0.2,0.78,0.52,1.03,0.92L115.57,31.06z M114.86,31.79l0.64-0.42l-0.25-0.38 l-0.64,0.42L114.86,31.79z M113.78,31.13c0.3,0.14,0.57,0.35,0.77,0.61l0.35-0.28c-0.25-0.31-0.57-0.57-0.94-0.73L113.78,31.13z  M112.82,30.94c0.33-0.01,0.66,0.05,0.96,0.19l0.19-0.41c-0.37-0.17-0.77-0.25-1.17-0.23L112.82,30.94z M93.16,29.86h-2.5v0.45h2.5 V29.86z M94.58,30.07c-0.46-0.17-0.95-0.24-1.43-0.21l0.03,0.45c0.42-0.03,0.85,0.03,1.25,0.18L94.58,30.07z M95.8,30.84 c-0.35-0.34-0.77-0.6-1.23-0.77l-0.16,0.42c0.4,0.15,0.76,0.38,1.07,0.67L95.8,30.84z M96.61,32.05c-0.18-0.45-0.45-0.87-0.81-1.21 l-0.31,0.32c0.31,0.3,0.54,0.66,0.7,1.05L96.61,32.05z M96.85,33.48c0.02-0.49-0.06-0.98-0.24-1.43l-0.42,0.17 c0.16,0.4,0.23,0.82,0.21,1.25L96.85,33.48z M96.64,34.92c0.17-0.47,0.25-0.97,0.22-1.46l-0.45,0.03c0.03,0.43-0.04,0.87-0.19,1.28 L96.64,34.92z M95.84,36.17c0.35-0.36,0.62-0.78,0.8-1.25l-0.42-0.16c-0.15,0.41-0.39,0.78-0.69,1.09L95.84,36.17z M94.61,36.99 c0.46-0.18,0.88-0.46,1.23-0.82l-0.32-0.32c-0.31,0.31-0.67,0.55-1.08,0.71L94.61,36.99z M93.15,37.23c0.5,0.02,0.99-0.06,1.46-0.24 l-0.16-0.42c-0.4,0.16-0.84,0.23-1.27,0.21L93.15,37.23z M90.66,37.23h2.5v-0.45h-2.5V37.23z M90.43,30.09V37h0.45v-6.92H90.43z  M95.43,32.59c0.1,0.27,0.15,0.57,0.13,0.86l0.45,0.02c0.01-0.35-0.04-0.7-0.16-1.03L95.43,32.59z M94.97,31.85 c0.2,0.21,0.35,0.47,0.45,0.74l0.42-0.16c-0.12-0.33-0.31-0.63-0.55-0.89L94.97,31.85z M94.27,31.34c0.26,0.12,0.5,0.29,0.7,0.51 l0.33-0.31c-0.24-0.26-0.53-0.47-0.85-0.61L94.27,31.34z M93.43,31.14c0.29,0.01,0.58,0.08,0.84,0.2l0.19-0.41 c-0.32-0.15-0.66-0.23-1.02-0.24L93.43,31.14z M91.5,31.14h1.93v-0.45H91.5V31.14z M91.73,36.14v-5.22h-0.45v5.22H91.73z  M93.18,35.92H91.5v0.45h1.67V35.92z M94.13,35.76c-0.3,0.12-0.62,0.17-0.94,0.16l-0.02,0.45c0.38,0.02,0.77-0.05,1.13-0.19 L94.13,35.76z M94.92,35.23c-0.22,0.23-0.49,0.41-0.79,0.53l0.17,0.42c0.36-0.14,0.68-0.36,0.95-0.64L94.92,35.23z M95.43,34.42 c-0.11,0.3-0.28,0.58-0.51,0.81l0.32,0.31c0.27-0.28,0.48-0.61,0.61-0.97L95.43,34.42z M95.56,33.47c0.02,0.32-0.02,0.64-0.13,0.95 l0.42,0.15c0.13-0.36,0.19-0.75,0.16-1.13L95.56,33.47z M51.57,35.3c-0.25-0.51-0.38-1.07-0.38-1.63h-0.45 c0,0.63,0.14,1.26,0.42,1.83L51.57,35.3z M52.64,36.42c-0.46-0.26-0.83-0.65-1.07-1.12l-0.4,0.2c0.27,0.55,0.71,1.01,1.25,1.31 L52.64,36.42z M54.23,36.83c-0.56,0-1.1-0.14-1.59-0.41l-0.22,0.39c0.55,0.31,1.18,0.47,1.81,0.47V36.83z M55.82,36.42 c-0.49,0.27-1.03,0.41-1.59,0.41v0.45c0.63,0,1.26-0.16,1.81-0.47L55.82,36.42z M56.88,35.3c-0.24,0.47-0.61,0.86-1.07,1.12 l0.22,0.39c0.54-0.3,0.97-0.76,1.25-1.31L56.88,35.3z M57.26,33.67c0,0.56-0.13,1.12-0.38,1.63l0.4,0.2 c0.28-0.57,0.42-1.19,0.42-1.83H57.26z M56.88,32.04c0.25,0.51,0.38,1.07,0.38,1.63h0.45c0-0.63-0.14-1.26-0.42-1.83L56.88,32.04z  M55.81,30.92c0.45,0.27,0.83,0.66,1.07,1.12l0.4-0.21c-0.28-0.54-0.71-0.99-1.24-1.3L55.81,30.92z M54.23,30.51 c0.56,0,1.1,0.14,1.59,0.41l0.22-0.39c-0.55-0.31-1.18-0.47-1.81-0.47V30.51z M52.64,30.93c0.49-0.27,1.03-0.41,1.59-0.41v-0.45 c-0.63,0-1.25,0.16-1.81,0.47L52.64,30.93z M51.57,32.04c0.23-0.47,0.61-0.86,1.07-1.12l-0.22-0.39c-0.54,0.3-0.97,0.76-1.25,1.31 L51.57,32.04z M51.2,33.67c0-0.57,0.13-1.12,0.38-1.63l-0.4-0.2c-0.28,0.57-0.42,1.19-0.42,1.83H51.2z M51.59,33.67 c-0.01,0.5,0.1,1,0.32,1.46l0.41-0.19c-0.18-0.4-0.28-0.83-0.27-1.26L51.59,33.67z M52.03,33.61L52.03,33.61l-0.43,0.13l0,0 L52.03,33.61z M52.27,31.62c-0.48,0.58-0.72,1.32-0.68,2.07l0.45-0.02c-0.03-0.64,0.17-1.27,0.58-1.76L52.27,31.62z M52.29,31.58 c0,0.01-0.01,0.01-0.01,0.01c0,0,0,0,0,0l0.32,0.32c0.02-0.02,0.04-0.04,0.05-0.05L52.29,31.58z M52.43,31.47 c-0.07,0.04-0.12,0.1-0.13,0.11l0.35,0.28c0-0.01,0.01-0.01,0.01-0.01c0,0,0,0,0,0c0,0-0.01,0.01-0.03,0.02L52.43,31.47z  M53.24,30.96c-0.32,0.12-0.62,0.31-0.87,0.55l0.31,0.33c0.21-0.2,0.45-0.35,0.72-0.46L53.24,30.96z M54.26,30.78 c-0.35-0.01-0.69,0.05-1.02,0.18l0.16,0.42c0.27-0.1,0.56-0.15,0.84-0.15L54.26,30.78z M55.27,31.01c-0.32-0.14-0.66-0.22-1.01-0.23 l-0.01,0.45c0.29,0.01,0.57,0.07,0.83,0.19L55.27,31.01z M56.11,31.6c-0.24-0.25-0.52-0.46-0.84-0.6l-0.18,0.41 c0.26,0.12,0.5,0.29,0.7,0.5L56.11,31.6z M56.83,33.68c0.04-0.76-0.22-1.5-0.72-2.07l-0.34,0.3c0.42,0.48,0.64,1.11,0.61,1.75 L56.83,33.68z M56.51,35.13c0.21-0.46,0.32-0.95,0.32-1.46l-0.45,0c0,0.44-0.09,0.87-0.27,1.27L56.51,35.13z M55.61,36.18 c0.39-0.26,0.71-0.62,0.91-1.05l-0.41-0.19c-0.16,0.35-0.42,0.65-0.75,0.86L55.61,36.18z M54.21,36.56c0.49,0,0.97-0.13,1.39-0.38 l-0.23-0.39c-0.35,0.21-0.75,0.31-1.16,0.31V36.56z M52.82,36.18c0.42,0.25,0.9,0.38,1.39,0.38v-0.45c-0.41,0-0.81-0.11-1.16-0.31 L52.82,36.18z M51.9,35.13c0.2,0.42,0.52,0.78,0.9,1.04l0.25-0.37c-0.32-0.22-0.58-0.52-0.75-0.87L51.9,35.13z M38.15,33.67 c0-0.44,0.09-0.88,0.26-1.29L38,32.21c-0.2,0.46-0.3,0.96-0.29,1.47L38.15,33.67z M38.37,34.96c-0.15-0.41-0.23-0.84-0.22-1.28 l-0.45-0.01c-0.01,0.49,0.07,0.98,0.25,1.45L38.37,34.96z M39.04,35.96c-0.29-0.29-0.51-0.63-0.67-1.01l-0.42,0.17 c0.18,0.43,0.44,0.83,0.77,1.16L39.04,35.96z M41.21,36.83c-0.81,0-1.59-0.31-2.18-0.87l-0.31,0.32c0.67,0.64,1.56,1,2.49,1 L41.21,36.83z M42.8,36.41c-0.48,0.29-1.03,0.43-1.59,0.43l-0.01,0.45c0.64,0.01,1.27-0.16,1.83-0.49L42.8,36.41z M43.78,35.28 c-0.21,0.47-0.55,0.86-0.98,1.13l0.24,0.38c0.51-0.32,0.91-0.78,1.15-1.33L43.78,35.28z M44.11,33.57c0.01,0.59-0.1,1.17-0.33,1.71 l0.41,0.18c0.26-0.6,0.38-1.25,0.37-1.9L44.11,33.57z M40.77,33.79h3.56v-0.45h-3.56V33.79z M41,34.3v-0.74h-0.45v0.74H41z  M43.45,34.07h-2.68v0.45h2.68V34.07z M43.44,35.18c0.12-0.27,0.2-0.56,0.24-0.85l-0.45-0.06c-0.03,0.25-0.1,0.5-0.2,0.73 L43.44,35.18z M42.98,35.88c0.18-0.21,0.33-0.44,0.45-0.69l-0.4-0.2c-0.1,0.21-0.24,0.41-0.39,0.6L42.98,35.88z M42.23,36.41 c0.29-0.11,0.55-0.29,0.75-0.52l-0.34-0.3c-0.15,0.18-0.35,0.31-0.57,0.4L42.23,36.41z M41.27,36.59c0.33,0,0.66-0.06,0.96-0.18 l-0.16-0.42c-0.25,0.1-0.53,0.15-0.8,0.15L41.27,36.59z M39.87,36.22c0.43,0.25,0.91,0.38,1.41,0.36l-0.01-0.45 c-0.41,0.01-0.81-0.09-1.17-0.3L39.87,36.22z M38.89,35.18c0.23,0.43,0.57,0.79,0.98,1.04l0.23-0.38c-0.35-0.21-0.63-0.51-0.82-0.87 L38.89,35.18z M38.53,33.69c0,0.52,0.12,1.02,0.36,1.48l0.4-0.21c-0.2-0.39-0.31-0.83-0.31-1.28L38.53,33.69z M39.31,31.63 c-0.52,0.56-0.79,1.31-0.78,2.07l0.45-0.01c-0.02-0.65,0.22-1.28,0.66-1.76L39.31,31.63z M40.8,30.86c-0.56,0.1-1.08,0.36-1.48,0.77 l0.32,0.32c0.34-0.34,0.77-0.56,1.24-0.64L40.8,30.86z M42.45,31.08c-0.52-0.24-1.09-0.32-1.65-0.22l0.08,0.44 c0.47-0.08,0.95-0.02,1.39,0.19L42.45,31.08z M43.35,31.8c-0.25-0.3-0.55-0.54-0.9-0.72l-0.2,0.4c0.29,0.15,0.55,0.35,0.76,0.61 L43.35,31.8z M43.7,31.34l-0.64,0.42l0.25,0.38l0.64-0.42L43.7,31.34z M42.6,30.82c0.41,0.2,0.77,0.49,1.04,0.84L44,31.39 c-0.32-0.42-0.73-0.75-1.2-0.98L42.6,30.82z M41.29,30.53c0.45-0.01,0.9,0.09,1.31,0.28l0.19-0.41c-0.47-0.23-0.99-0.34-1.51-0.33 L41.29,30.53z M40.07,30.76c0.38-0.16,0.8-0.23,1.21-0.22l0.01-0.45c-0.48-0.01-0.95,0.07-1.4,0.26L40.07,30.76z M39.07,31.39 c0.29-0.27,0.62-0.49,0.99-0.63l-0.16-0.42c-0.42,0.17-0.81,0.41-1.14,0.73L39.07,31.39z M38.41,32.38 c0.15-0.37,0.38-0.71,0.67-0.99l-0.32-0.32c-0.33,0.32-0.59,0.71-0.77,1.14L38.41,32.38z M27.21,37.03l2.65-6.57l-0.42-0.17 l-2.65,6.57L27.21,37.03z M27.92,36.71L27,36.72L27,37.17l0.92-0.02L27.92,36.71z M28.28,35.39l-0.57,1.45l0.42,0.16l0.57-1.45 L28.28,35.39z M31.76,35.25h-3.27v0.45h3.27V35.25z M32.55,36.85l-0.59-1.45l-0.42,0.17l0.59,1.45L32.55,36.85z M33.28,36.71h-0.94 v0.45h0.94V36.71z M30.45,30.47l2.63,6.55l0.42-0.17l-2.63-6.55L30.45,30.47z M29.65,30.61h1.01v-0.45h-1.01V30.61z M28.75,35h2.77 v-0.45h-2.77V35z M29.91,31.15l-1.38,3.55l0.42,0.16l1.38-3.55L29.91,31.15z M31.73,34.69l-1.4-3.55l-0.42,0.16l1.4,3.55 L31.73,34.69z M45.64,30.38v6.57h0.45v-6.57H45.64z M46.67,30.16h-0.81v0.45h0.81V30.16z M46.9,36.21v-5.83h-0.45v5.83H46.9z  M49.72,35.99h-3.05v0.45h3.05V35.99z M49.94,36.95v-0.74h-0.45v0.74H49.94z M45.86,37.17h3.86v-0.45h-3.86V37.17z M59.28,30.38 v6.57h0.45v-6.57H59.28z M62.43,30.16h-2.92v0.45h2.92V30.16z M63.92,30.67c-0.42-0.35-0.95-0.54-1.5-0.51l0.02,0.45 c0.43-0.02,0.85,0.13,1.19,0.41L63.92,30.67z M64.36,31.31c-0.1-0.24-0.25-0.45-0.43-0.63l-0.31,0.33c0.14,0.13,0.25,0.3,0.33,0.47 L64.36,31.31z M64.49,32.06c0.01-0.26-0.04-0.52-0.13-0.75l-0.42,0.17c0.07,0.18,0.11,0.37,0.1,0.57L64.49,32.06z M64.11,33.19 c0.26-0.32,0.4-0.73,0.38-1.14l-0.45,0.02c0.01,0.31-0.09,0.61-0.28,0.84L64.11,33.19z M63.18,33.78c0.37-0.09,0.7-0.3,0.93-0.59 l-0.35-0.28c-0.17,0.22-0.41,0.37-0.68,0.44L63.18,33.78z M63.75,33.56c-0.18-0.11-0.38-0.18-0.59-0.22l-0.07,0.44 c0.15,0.02,0.29,0.08,0.42,0.16L63.75,33.56z M64.21,33.98c-0.12-0.17-0.28-0.32-0.46-0.43l-0.24,0.38 c0.13,0.08,0.24,0.18,0.33,0.31L64.21,33.98z M64.62,35.18c0-0.44-0.14-0.86-0.42-1.21l-0.35,0.28c0.21,0.26,0.32,0.59,0.32,0.93 L64.62,35.18z M64.49,35.96c0.1-0.25,0.15-0.52,0.14-0.79l-0.45,0.02c0.01,0.21-0.03,0.41-0.1,0.61L64.49,35.96z M64.04,36.63 c0.19-0.19,0.35-0.42,0.45-0.67l-0.42-0.17c-0.08,0.19-0.19,0.37-0.34,0.51L64.04,36.63z M62.47,37.17 c0.57,0.03,1.13-0.16,1.56-0.53l-0.3-0.34c-0.34,0.3-0.78,0.45-1.23,0.42L62.47,37.17z M59.51,37.17l2.98,0v-0.45l-2.98,0V37.17z  M62.28,33.01h-1.96v0.45h1.96V33.01z M62.65,32.96c-0.11,0.04-0.23,0.06-0.35,0.05l-0.03,0.45c0.18,0.01,0.36-0.01,0.53-0.08 L62.65,32.96z M62.96,32.77c-0.09,0.08-0.19,0.14-0.31,0.19l0.15,0.42c0.17-0.06,0.33-0.16,0.46-0.28L62.96,32.77z M63.13,32.51 c-0.04,0.1-0.1,0.19-0.18,0.27l0.32,0.32c0.12-0.12,0.22-0.26,0.28-0.42L63.13,32.51z M63.18,32.2c0.01,0.11-0.01,0.22-0.05,0.32 l0.42,0.16c0.06-0.16,0.09-0.33,0.08-0.5L63.18,32.2z M63.13,31.86c0.04,0.1,0.06,0.21,0.05,0.32l0.45,0.02 c0.01-0.17-0.02-0.34-0.08-0.5L63.13,31.86z M62.95,31.59c0.08,0.08,0.14,0.17,0.18,0.27l0.42-0.16c-0.06-0.16-0.16-0.3-0.28-0.42 L62.95,31.59z M62.65,31.41c0.11,0.04,0.22,0.1,0.31,0.18l0.3-0.33c-0.13-0.12-0.29-0.21-0.46-0.27L62.65,31.41z M62.29,31.36 c0.12-0.01,0.24,0.01,0.36,0.05l0.15-0.42c-0.17-0.06-0.35-0.09-0.53-0.08L62.29,31.36z M60.32,31.36h1.96v-0.45h-1.96V31.36z  M60.54,33.23v-2.1h-0.45v2.1H60.54z M62.34,36h-2.02v0.45h2.02V36z M63.08,35.76c-0.2,0.17-0.46,0.26-0.72,0.24l-0.02,0.45 c0.38,0.02,0.75-0.1,1.04-0.35L63.08,35.76z M63.25,35.47c-0.04,0.11-0.11,0.22-0.19,0.3l0.32,0.32c0.13-0.13,0.23-0.29,0.29-0.46 L63.25,35.47z M63.31,35.12c0.01,0.12-0.01,0.24-0.05,0.35l0.42,0.16c0.06-0.17,0.09-0.36,0.08-0.54L63.31,35.12z M63.05,34.45 c0.16,0.18,0.25,0.41,0.25,0.66l0.45,0c0-0.35-0.13-0.7-0.37-0.96L63.05,34.45z M62.74,34.25c0.12,0.05,0.24,0.12,0.33,0.21 l0.31-0.33c-0.14-0.13-0.3-0.24-0.48-0.3L62.74,34.25z M62.35,34.19c0.13-0.01,0.26,0.02,0.39,0.06l0.16-0.42 c-0.18-0.07-0.37-0.1-0.56-0.09L62.35,34.19z M60.32,34.19h2.02v-0.45h-2.02V34.19z M60.54,36.23v-2.26h-0.45v2.26H60.54z  M65.98,37.03l2.64-6.57l-0.42-0.17l-2.64,6.57L65.98,37.03z M66.69,36.71l-0.92,0.02l0.01,0.45l0.92-0.02L66.69,36.71z  M67.07,35.39l-0.59,1.45l0.42,0.17l0.59-1.45L67.07,35.39z M70.53,35.25h-3.25v0.45h3.25V35.25z M71.33,36.85l-0.59-1.45 l-0.42,0.17l0.59,1.45L71.33,36.85z M72.06,36.71h-0.94v0.45h0.94V36.71z M69.22,30.47l2.63,6.55l0.42-0.17l-2.63-6.55L69.22,30.47z  M68.42,30.61h1.01v-0.45h-1.01V30.61z M67.53,35h2.79v-0.45h-2.79V35z M68.72,31.15l-1.4,3.55l0.42,0.16l1.4-3.55L68.72,31.15z  M70.53,34.69l-1.4-3.55l-0.42,0.16l1.39,3.55L70.53,34.69z M73.43,36.93v0.02h0.45v-0.02H73.43z M74.48,36.71h-0.82v0.45h0.82 V36.71z M74.25,31.71v5.22h0.45v-5.22H74.25z M78.46,36.8l-3.8-5.22l-0.36,0.26l3.8,5.22L78.46,36.8z M79.07,36.71h-0.79v0.45h0.79 V36.71z M78.84,30.38v6.55h0.45v-6.55H78.84z M78.24,30.61h0.83v-0.45h-0.83V30.61z M78.47,35.51v-5.13h-0.45v5.13H78.47z  M74.3,30.52l3.76,5.13l0.36-0.27l-3.76-5.13L74.3,30.52z M73.65,30.61h0.83v-0.45h-0.83V30.61z M73.88,36.93v-6.55h-0.45v6.55 H73.88z M73.65,37.16L73.65,37.16l0-0.45h0V37.16z M73.88,36.93l0-0.02l-0.45,0.04l0,0.02L73.88,36.93z M81.17,31.12v-0.74h-0.45 v0.74H81.17z M83,30.89h-2.06v0.45H83V30.89z M83.23,36.95v-5.83h-0.45v5.83H83.23z M83.81,36.72H83v0.45h0.81V36.72z M83.58,31.12 v5.83h0.45v-5.83H83.58z M85.9,30.89h-2.09v0.45h2.09V30.89z M85.68,30.38v0.74h0.45v-0.74H85.68z M80.94,30.61h4.96v-0.45h-4.96 V30.61z M98.04,30.31h0.86v-0.45h-0.86V30.31z M98.27,36.99v-6.9h-0.45v6.9H98.27z M98.91,36.76h-0.86v0.45h0.86V36.76z  M98.68,30.09v6.9h0.45v-6.9H98.68z M103.53,35.89L101.17,30l-0.42,0.17l2.35,5.89L103.53,35.89z M105.48,30l-2.37,5.89l0.42,0.17 l2.37-5.89L105.48,30z M106.66,29.86h-0.97v0.45h0.97V29.86z M104.02,37.09l2.85-6.92L106.45,30l-2.85,6.92L104.02,37.09z  M102.89,37.23h0.92v-0.45h-0.92V37.23z M99.84,30.17l2.85,6.92l0.42-0.17L100.25,30L99.84,30.17z M100.96,29.86h-0.92v0.45h0.92 V29.86z M107.74,30.31h0.86v-0.45h-0.86V30.31z M107.97,36.99v-6.9h-0.45v6.9H107.97z M108.6,36.76h-0.86v0.45h0.86V36.76z  M108.38,30.09v6.9h0.45v-6.9H108.38z M116.96,30.31h0.83v-0.45h-0.83V30.31z M117.19,36.99v-6.9h-0.45v6.9H117.19z M117.79,36.76 h-0.83v0.45h0.83V36.76z M117.56,30.09v6.9h0.45v-6.9H117.56z M126.22,35.02c0.18-0.47,0.25-0.97,0.22-1.47L126,33.58 c0.02,0.44-0.04,0.88-0.19,1.29L126.22,35.02z M125.42,36.28c0.35-0.36,0.62-0.79,0.8-1.26l-0.42-0.16c-0.15,0.41-0.39,0.79-0.7,1.1 L125.42,36.28z M124.19,37.1c0.47-0.19,0.89-0.47,1.24-0.83l-0.32-0.31c-0.31,0.31-0.68,0.56-1.08,0.72L124.19,37.1z M122.72,37.36 c0.5,0.02,1-0.07,1.47-0.25l-0.17-0.42c-0.41,0.16-0.84,0.24-1.28,0.22L122.72,37.36z M121.27,37.11c0.47,0.18,0.97,0.27,1.47,0.25 l-0.02-0.45c-0.44,0.02-0.88-0.06-1.29-0.22L121.27,37.11z M120.02,36.29c0.35,0.36,0.78,0.64,1.24,0.82l0.17-0.42 c-0.41-0.16-0.78-0.41-1.09-0.72L120.02,36.29z M119.22,35.03c0.18,0.47,0.45,0.9,0.8,1.26l0.32-0.32c-0.31-0.31-0.55-0.69-0.7-1.1 L119.22,35.03z M119,33.55c-0.03,0.5,0.05,1.01,0.23,1.48l0.42-0.16c-0.15-0.41-0.22-0.85-0.2-1.29L119,33.55z M119.22,32.1 c-0.18,0.47-0.25,0.97-0.23,1.48l0.45-0.03c-0.02-0.44,0.04-0.88,0.2-1.29L119.22,32.1z M120.02,30.84 c-0.35,0.36-0.63,0.79-0.8,1.26l0.42,0.16c0.15-0.41,0.39-0.79,0.7-1.1L120.02,30.84z M121.27,30.01c-0.47,0.19-0.89,0.47-1.24,0.83 l0.32,0.31c0.31-0.32,0.68-0.56,1.09-0.73L121.27,30.01z M122.74,29.75c-0.5-0.02-1,0.07-1.47,0.26l0.17,0.42 c0.41-0.16,0.85-0.24,1.29-0.22L122.74,29.75z M124.19,30.01c-0.47-0.19-0.97-0.28-1.47-0.26l0.02,0.45 c0.44-0.01,0.88,0.06,1.28,0.23L124.19,30.01z M125.43,30.84c-0.35-0.36-0.77-0.64-1.24-0.83l-0.17,0.42 c0.41,0.16,0.78,0.41,1.08,0.73L125.43,30.84z M126.22,32.1c-0.18-0.47-0.45-0.9-0.8-1.26l-0.32,0.31c0.31,0.32,0.54,0.69,0.7,1.1 L126.22,32.1z M126.44,33.58c0.03-0.5-0.05-1-0.22-1.48l-0.42,0.16c0.15,0.41,0.22,0.85,0.19,1.29L126.44,33.58z M121.75,31.17 c0.31-0.13,0.64-0.19,0.97-0.17l0.01-0.45c-0.4-0.01-0.79,0.06-1.16,0.21L121.75,31.17z M120.94,31.72 c0.23-0.24,0.51-0.43,0.82-0.56l-0.17-0.42c-0.37,0.15-0.7,0.38-0.97,0.66L120.94,31.72z M120.42,32.57 c0.11-0.31,0.29-0.6,0.52-0.84l-0.33-0.31c-0.27,0.29-0.48,0.63-0.61,1L120.42,32.57z M120.29,33.55c-0.03-0.33,0.02-0.67,0.13-0.98 L120,32.42c-0.13,0.37-0.18,0.77-0.15,1.17L120.29,33.55z M120.42,34.55c-0.11-0.31-0.16-0.64-0.13-0.97l-0.45-0.03 c-0.03,0.39,0.02,0.79,0.16,1.16L120.42,34.55z M120.94,35.39c-0.23-0.24-0.41-0.52-0.52-0.83L120,34.71 c0.13,0.37,0.34,0.71,0.62,0.99L120.94,35.39z M121.75,35.93c-0.31-0.12-0.58-0.31-0.81-0.55l-0.32,0.31 c0.27,0.28,0.6,0.51,0.97,0.65L121.75,35.93z M122.72,36.1c-0.33,0.01-0.66-0.04-0.97-0.17l-0.17,0.42c0.37,0.15,0.76,0.21,1.15,0.2 L122.72,36.1z M123.69,35.93c-0.3,0.12-0.63,0.18-0.96,0.17l-0.01,0.45c0.39,0.01,0.78-0.06,1.14-0.21L123.69,35.93z M124.5,35.38 c-0.23,0.24-0.5,0.42-0.8,0.55l0.17,0.42c0.36-0.15,0.69-0.37,0.96-0.65L124.5,35.38z M125.01,34.55c-0.11,0.31-0.28,0.59-0.51,0.83 l0.33,0.31c0.27-0.28,0.48-0.62,0.61-0.99L125.01,34.55z M125.13,33.58c0.03,0.33-0.02,0.66-0.13,0.97l0.43,0.15 c0.13-0.37,0.18-0.76,0.15-1.15L125.13,33.58z M125,32.58c0.11,0.31,0.16,0.64,0.13,0.97l0.45,0.03c0.03-0.39-0.03-0.78-0.16-1.15 L125,32.58z M124.49,31.75c0.22,0.24,0.4,0.52,0.51,0.83l0.42-0.15c-0.13-0.37-0.34-0.71-0.61-0.99L124.49,31.75z M123.69,31.19 c0.3,0.13,0.58,0.32,0.8,0.56l0.33-0.31c-0.27-0.29-0.59-0.51-0.95-0.67L123.69,31.19z M122.73,30.99c0.33,0,0.65,0.06,0.96,0.19 l0.18-0.41c-0.36-0.15-0.75-0.23-1.14-0.23L122.73,30.99z M128.05,30.23l4.22,5.28l0.35-0.28l-4.22-5.28L128.05,30.23z  M127.63,30.31h0.59v-0.45h-0.59V30.31z M127.86,36.99v-6.9h-0.45v6.9H127.86z M128.46,36.76h-0.83v0.45h0.83V36.76z M128.24,31.73 v5.26h0.45v-5.26H128.24z M132.86,36.84l-4.22-5.26l-0.35,0.28l4.22,5.26L132.86,36.84z M133.27,36.76h-0.59v0.45h0.59V36.76z  M133.05,30.09v6.9h0.45v-6.9H133.05z M132.45,30.31h0.83v-0.45h-0.83V30.31z M132.67,35.37v-5.28h-0.45v5.28H132.67z"></path></svg>